<svg preserveAspectRatio="xMidYMid meet" viewBox="239.616 233.472 561.152 528.384" xmlns="http://www.w3.org/2000/svg" version="1.0" style="max-height: 500px" width="561.152" height="528.384">
<!-- This is the <defs> link gradiant that is rendered using an id myGradient-->
 <defs> 
 <linearGradient id="myGradient" x1="0%" y1="0%" x2="100%" y2="0%"> <stop offset="0%" stop-color="#d3b50a" /> <stop offset="100%" stop-color="#ff6600" /> </linearGradient> 
 </defs>
 <!-- ****** -->

<g stroke="none" fill="#fc0505ff" transform="translate(0.000000,1024.000000) scale(0.100000,-0.100000)">
<path d="M4002 7834 c-200 -25 -492 -112 -642 -190 -135 -70 -265 -169 -401&#10;-304 -277 -274 -421 -545 -485 -915 -22 -124 -28 -831 -15 -1655 10 -676 11&#10;-684 66 -886 46 -170 133 -345 248 -500 93 -125 280 -303 407 -387 196 -129&#10;413 -220 630 -263 77 -16 233 -18 1743 -21 l1657 -4 0 400 0 401 -1552 -7&#10;c-1608 -6 -1633 -6 -1798 34 -160 38 -368 175 -461 304 -62 85 -116 194 -134&#10;271 -9 39 -19 159 -25 313 -5 138 -12 281 -15 318 l-5 68 172 -7 173 -7 0 448&#10;0 448 -170 1 -170 1 3 320 c3 369 8 409 79 553 87 178 298 358 495 421 187 59&#10;88 56 1815 56 l1593 0 0 403 0 402 -1552 -1 c-1223 -1 -1575 -4 -1656 -15z" fill="url(#myGradient)"/>
<path d="M3750 5375 l0 -985 150 0 150 0 0 618 c1 529 3 613 15 592 7 -14 43&#10;-111 80 -215 84 -240 122 -344 175 -472 40 -96 45 -103 71 -103 23 0 29 6 39&#10;38 7 20 46 119 87 220 40 100 98 251 127 335 30 83 63 172 74 197 l21 45 0&#10;-627 1 -628 150 0 150 0 0 985 0 985 -155 0 -154 0 -15 -29 c-21 -40 -257&#10;-630 -291 -726 -29 -83 -45 -112 -45 -82 0 9 -28 90 -62 179 -33 90 -98 273&#10;-143 408 l-81 245 -172 3 -172 2 0 -985z"/>
<path d="M5240 5375 l0 -985 151 0 152 0 -6 610 c-3 336 -2 610 2 610 8 0 65&#10;-143 91 -231 11 -36 47 -133 80 -215 34 -82 79 -195 101 -251 35 -90 44 -103&#10;64 -103 19 0 28 12 53 73 47 113 140 359 188 499 24 70 57 156 73 190 l29 63&#10;1 -625 1 -625 150 3 150 3 0 985 0 984 -176 -2 -177 -3 -18 -55 c-11 -30 -48&#10;-147 -84 -260 -35 -113 -91 -275 -124 -360 l-59 -155 -22 50 c-12 28 -57 145&#10;-100 260 -42 116 -104 281 -136 367 l-59 158 -162 0 -163 0 0 -985z"/>
<path d="M7070 6263 c-12 -54 -51 -222 -87 -373 -35 -151 -98 -425 -138 -609&#10;-61 -272 -188 -800 -211 -873 -5 -17 7 -18 158 -18 l163 0 50 203 50 202 212&#10;3 212 2 15 -72 c9 -40 25 -114 35 -164 11 -51 25 -110 31 -132 l11 -41 159 -3&#10;c88 -2 160 -2 160 -1 0 1 -13 42 -28 90 -39 120 -67 238 -172 727 -76 349&#10;-217 957 -260 1115 l-11 41 -164 0 -163 0 -22 -97z m285 -863 c25 -107 48&#10;-216 51 -241 l6 -46 -137 -6 c-75 -4 -141 -5 -145 -2 -4 3 12 100 37 217 24&#10;117 48 242 53 278 5 36 16 91 25 123 8 32 15 61 16 65 1 10 42 -159 94 -388z"/>
</g>
</svg>