<?xml version="1.0" encoding="UTF-8"?>
<svg version="1.1" xmlns="http://www.w3.org/2000/svg" width="300" height="300" viewBox="0 0 788 653" preserveAspectRatio="xMidYMid meet">
<path d="M0,0 L788,0 L788,653 L0,653 Z M253,32 L240,44 L229,53 L219,62 L208,72 L196,81 L196,83 L192,85 L176,100 L165,109 L154,119 L143,128 L133,137 L120,148 L110,157 L99,166 L90,175 L77,185 L64,197 L54,205 L39,219 L32,224 L32,226 L28,228 L13,242 L14,416 L20,423 L33,433 L43,442 L54,451 L67,462 L78,471 L89,480 L91,481 L202,482 L263,482 L272,476 L283,466 L294,457 L307,446 L317,437 L328,428 L341,416 L342,414 L278,413 L138,412 L113,411 L100,399 L92,392 L81,383 L80,377 L80,271 L85,265 L96,256 L110,244 L120,235 L128,228 L139,219 L149,210 L160,201 L160,199 L164,197 L166,196 L166,194 L170,192 L179,184 L190,175 L201,165 L212,156 L216,153 L216,151 L220,149 L235,135 L249,124 L253,120 L257,122 L265,129 L276,138 L289,149 L297,153 L315,153 L323,149 L337,136 L347,128 L354,122 L355,119 L347,111 L336,102 L326,93 L315,84 L306,75 L295,66 L286,58 L278,51 L266,41 L264,41 L264,39 L255,32 Z M519,33 L511,39 L511,41 L507,43 L497,52 L489,59 L478,68 L464,80 L454,89 L443,98 L432,108 L422,116 L411,126 L402,133 L392,142 L384,148 L384,150 L434,151 L445,160 L454,169 L459,171 L461,170 L461,168 L465,166 L476,157 L488,146 L501,135 L509,128 L519,120 L519,118 L527,124 L540,135 L551,144 L558,150 L562,152 L584,152 L589,149 L596,142 L607,133 L615,126 L621,121 L620,117 L609,108 L594,95 L583,86 L571,75 L560,66 L552,59 L541,50 L531,41 L521,33 Z M250,175 L240,183 L226,195 L218,202 L207,212 L196,221 L183,232 L183,234 L179,236 L174,242 L175,243 L379,244 L405,245 L410,250 L417,257 L428,266 L437,274 L438,286 L438,381 L427,390 L420,397 L410,405 L400,414 L391,421 L379,432 L371,439 L361,448 L350,457 L346,460 L346,462 L342,464 L330,474 L322,481 L310,492 L299,501 L289,510 L286,512 L286,514 L282,516 L268,527 L261,534 L253,540 L244,533 L233,523 L222,514 L214,507 L189,507 L182,510 L175,517 L164,526 L152,537 L150,541 L163,553 L174,562 L185,571 L198,582 L209,591 L222,602 L233,611 L246,622 L252,627 L256,626 L267,617 L280,605 L288,598 L296,592 L296,590 L300,588 L310,579 L321,570 L329,562 L340,553 L350,544 L360,536 L372,525 L383,516 L390,510 L390,508 L394,506 L408,493 L419,484 L430,474 L444,463 L456,452 L467,443 L482,429 L490,422 L502,411 L503,409 L504,388 L504,353 L503,263 L502,241 L489,230 L481,223 L473,216 L460,205 L454,200 L452,200 L452,198 L442,190 L427,176 L401,175 Z M518,175 L510,181 L501,189 L490,198 L492,202 L500,209 L511,218 L526,232 L534,239 L538,242 L554,243 L586,243 L672,244 L672,246 L680,253 L690,262 L697,268 L699,268 L699,270 L703,274 L705,274 L703,383 L690,395 L679,404 L668,414 L659,421 L646,433 L643,435 L643,437 L639,439 L627,449 L625,450 L625,452 L623,452 L618,457 L610,464 L599,473 L589,482 L578,491 L568,500 L559,507 L559,509 L555,511 L542,522 L532,532 L522,540 L518,541 L505,530 L490,517 L480,508 L478,507 L457,507 L449,510 L437,521 L426,530 L421,534 L421,536 L417,538 L415,541 L429,553 L440,563 L451,572 L465,584 L467,584 L467,586 L477,594 L490,605 L505,618 L518,629 L522,627 L533,617 L544,608 L554,599 L564,591 L575,581 L584,574 L594,564 L605,555 L620,542 L634,530 L649,517 L662,506 L670,499 L681,489 L692,480 L702,471 L710,464 L713,462 L713,460 L717,458 L728,449 L732,446 L732,444 L736,442 L750,430 L759,422 L767,415 L768,414 L769,342 L769,264 L768,244 L767,241 L765,241 L765,239 L751,228 L737,215 L726,206 L715,196 L704,187 L694,178 L689,175 Z M140,273 L139,274 L138,341 L138,382 L141,383 L156,383 L157,382 L159,322 L169,381 L171,383 L183,383 L185,381 L194,325 L196,381 L198,383 L212,383 L214,382 L215,379 L215,276 L214,273 L189,273 L187,276 L179,324 L177,335 L173,314 L169,287 L167,274 L165,273 Z M233,273 L230,275 L230,382 L231,383 L247,383 L248,382 L249,339 L250,321 L257,363 L260,380 L262,383 L275,383 L277,379 L285,327 L286,325 L287,376 L288,382 L290,383 L305,383 L306,382 L306,274 L305,273 L280,273 L278,278 L270,324 L269,333 L267,333 L266,321 L259,276 L256,273 Z M338,273 L335,285 L324,342 L318,374 L318,383 L339,383 L341,381 L344,363 L346,361 L356,361 L357,369 L360,382 L361,383 L381,383 L382,382 L381,368 L375,339 L368,303 L362,273 Z M538,274 L536,278 L536,379 L537,382 L647,382 L648,381 L649,361 L649,345 L647,343 L576,342 L575,313 L644,314 L647,313 L648,310 L649,275 L648,274 Z M548,413 L538,414 L525,428 L517,435 L507,444 L498,451 L498,453 L494,455 L483,465 L475,472 L465,480 L466,482 L532,481 L546,470 L558,459 L568,451 L576,444 L576,442 L580,440 L594,428 L603,421 L607,417 L607,414 L572,413 Z " fill="#14043cfe" transform="translate(0,0)"/>
<path d="M0,0 L2,0 L5,19 L5,24 L-3,24 L-2,13 Z " fill="#14043cfe" transform="translate(349,318)"/>
</svg>
